<?xml version="1.0" encoding="UTF-8"?>
<svg id="Layer_1" xmlns="http://www.w3.org/2000/svg" version="1.1" viewBox="0 0 473.48 196.42">
  <!-- Generator: Adobe Illustrator 29.5.1, SVG Export Plug-In . SVG Version: 2.1.0 Build 141)  -->
  <path d="M86.86,180.73v-23.08c0-1.12-.9-2.02-2.02-2.02H7.2c-2.99,0-5.41-2.42-5.41-5.41v-27.09c0-1.12.35-2.21,1-3.13L78.8,12.81c1.01-1.43,2.66-2.28,4.41-2.28h42.64c2.99,0,5.41,2.42,5.41,5.41v97c0,1.12.9,2.02,2.02,2.02h11.92c2.99,0,5.41,2.42,5.41,5.41v29.86c0,2.99-2.42,5.41-5.41,5.41h-11.92c-1.12,0-2.02.9-2.02,2.02v23.08c0,2.99-2.42,5.41-5.41,5.41h-33.58c-2.99,0-5.41-2.42-5.41-5.41ZM54.87,114.95h26.59c2.99,0,5.41-2.42,5.41-5.41v-42.09c0-1.45-1.88-2.01-2.68-.81l-30.53,46.03c-.64.97.05,2.27,1.22,2.27Z" style="fill: #363438;"/>
  <path d="M236.3,188.13c-13.39,0-24.68-2.32-33.85-6.95-9.18-4.62-16.58-11.07-22.2-19.34-5.62-8.28-9.67-17.77-12.15-28.53-2.48-10.75-3.72-22.15-3.72-34.22s1.32-24.34,3.98-35.34c2.63-11,6.85-20.63,12.65-28.9,5.78-8.27,13.31-14.77,22.57-19.48,9.27-4.71,20.43-7.06,33.49-7.06s24.43,2.35,33.61,7.06,16.62,11.25,22.32,19.6c5.7,8.35,9.84,17.94,12.4,28.77,2.56,10.83,3.85,22.37,3.85,34.6s-1.33,24.02-3.98,34.85c-2.64,10.83-6.81,20.38-12.52,28.65-5.7,8.27-13.18,14.72-22.45,19.34-9.25,4.63-20.59,6.95-33.98,6.95ZM236.3,146.7c6.78,0,12.11-1.74,16.01-5.21,3.88-3.47,6.69-7.81,8.43-13.02s2.86-10.54,3.35-16,.75-10.17.75-14.14-.21-8.39-.63-13.77c-.41-5.37-1.44-10.62-3.1-15.74s-4.34-9.43-8.06-12.9c-3.71-3.47-8.97-5.21-15.74-5.21s-11.87,1.7-15.75,5.08c-3.89,3.39-6.74,7.65-8.56,12.78s-3.02,10.38-3.59,15.75c-.59,5.37-.87,10.04-.87,14.01s.2,8.44.62,13.89c.41,5.46,1.45,10.84,3.1,16.13,1.66,5.29,4.38,9.67,8.19,13.14s9.09,5.21,15.88,5.21Z" style="fill: #363438;"/>
  <path d="M407.94,180.73v-23.06c0-1.12-.91-2.04-2.04-2.04h-77.63c-2.99,0-5.41-2.42-5.41-5.41v-27.09c0-1.12.35-2.21,1-3.13L399.87,12.81c1.01-1.43,2.66-2.28,4.41-2.28h42.64c2.99,0,5.41,2.42,5.41,5.41v96.98c0,1.12.91,2.04,2.04,2.04h11.9c2.99,0,5.41,2.42,5.41,5.41v29.86c0,2.99-2.42,5.41-5.41,5.41h-11.9c-1.12,0-2.04.91-2.04,2.04v23.06c0,2.99-2.42,5.41-5.41,5.41h-33.58c-2.99,0-5.41-2.42-5.41-5.41ZM376.02,114.95h29.88c1.13,0,2.04-.91,2.04-2.04v-45.3c0-1.49-1.94-2.08-2.76-.83l-30.41,45.85c-.66,1,.05,2.33,1.25,2.33Z" style="fill: #363438;"/>
</svg>