<?xml version="1.0" encoding="UTF-8"?>
<svg id="Layer_1" xmlns="http://www.w3.org/2000/svg" version="1.1" viewBox="0 0 1685.75 383.87">
  <!-- Generator: Adobe Illustrator 29.5.1, SVG Export Plug-In . SVG Version: 2.1.0 Build 141)  -->
  <g>
    <path d="M282.65,373.81c-16.34,0-30-3.49-40.99-10.47-10.99-6.98-19.27-16.56-24.84-28.74-5.57-12.17-8.35-30.63-8.35-45.93s2.78-33.73,8.35-45.91c5.57-12.18,13.85-21.75,24.84-28.74,10.99-6.98,24.65-10.47,40.99-10.47s29.96,3.49,40.87,10.47c10.91,6.98,19.16,16.56,24.73,28.74,5.57,12.18,8.35,30.46,8.35,45.91s-2.78,33.75-8.35,45.93c-5.57,12.18-13.81,21.76-24.73,28.74-10.91,6.98-24.54,10.47-40.87,10.47ZM282.65,356.21c12.47,0,22.72-2.86,30.74-8.58,8.02-5.72,13.92-13.33,17.71-22.83,3.79-9.5,5.68-24.69,5.68-36.13,0-8.61-1.08-21.22-3.23-28.87-2.15-7.65-5.46-14.37-9.91-20.16-4.46-5.79-10.1-10.32-16.93-13.59-6.83-3.26-14.85-4.9-24.06-4.9-12.33,0-22.54,2.9-30.63,8.69-8.1,5.79-14.11,13.44-18.04,22.94-3.94,9.51-5.9,24.45-5.9,35.88s1.93,26.4,5.79,35.9c3.86,9.5,9.84,17.15,17.93,22.94,8.09,5.79,18.38,8.69,30.85,8.69Z" fill="#363438"/>
    <path d="M496.17,233.38c-2.6-6.31-6.34-11.4-11.25-15.26-4.9-3.85-10.8-6.68-17.71-8.46-6.9-1.79-14.73-2.67-23.5-2.67h-58.8c-1.05,0-1.89.85-1.89,1.89v159.39c0,1.04.84,1.88,1.88,1.88h15.58c1.06,0,1.91-.86,1.91-1.91v-62.3c0-.28.22-.5.5-.5h39.83s12.67-.4,23.65-3.8c.06-.02.13-.04.2-.06,2.11-.67,4.17-1.47,6.17-2.39,3.31-1.52,6.48-3.38,9.5-5.56,5.35-3.85,9.65-8.87,12.92-15.04,3.27-6.16,4.91-13.62,4.91-22.38s-1.31-16.52-3.9-22.83ZM476.69,271.92c-2.23,4.22-5.32,7.49-9.25,9.8-3.93,2.3-8.46,3.9-13.58,4.79-5.12.89-10.59,1.34-16.37,1.34h-34.58c-.27,0-.5-.22-.5-.5v-62.27c0-.28.22-.5.5-.5h38.8c8.32,0,15.38,1.01,21.16,3.02,5.8,2,10.18,5.27,13.14,9.8,2.97,4.54,4.38,10.58,4.23,18.16-.15,6.68-1.34,12.14-3.56,16.37Z" fill="#363438"/>
    <path d="M699.15,207.11h-4.57.01s-19.74-.01-19.74-.01c-1.26,0-2.41.74-2.92,1.9l-60.85,136.1c-.18.39-.74.39-.91,0l-60.85-136.1c-.52-1.15-1.67-1.9-2.93-1.9h-24.28c-1.04,0-1.9.85-1.9,1.9v159.39c0,1.04.85,1.89,1.89,1.89h15.51c1.04,0,1.89-.85,1.89-1.89v-132.59c0-.54.74-.7.96-.2l59.54,133.17c.41.92,1.32,1.51,2.33,1.51h16.6c1.01,0,1.92-.59,2.33-1.51l59.54-133.18c.22-.49.96-.34.96.2v132.6c0,1.04.85,1.89,1.89,1.89h15.52c1.04,0,1.88-.84,1.88-1.88v-159.38c0-1.04-.85-1.89-1.89-1.89Z" fill="#363438"/>
    <path d="M703.71,173.1L638.58,13.32c-.29-.73-.99-1.2-1.78-1.2h-17.37c-.79,0-1.48.47-1.78,1.2l-65.11,159.78c-.21.5-.15,1.07.15,1.52.3.45.81.72,1.35.72h17.3c.8,0,1.52-.48,1.82-1.23l12.57-31.3c.15-.38.52-.63.93-.63h82.88c.41-.01.78.24.93.62l12.59,31.31c.3.75,1.02,1.23,1.82,1.23h17.3c.54,0,1.05-.27,1.35-.72.3-.45.36-1.02.16-1.52ZM662.55,124.91h-68.86c-.35,0-.6-.36-.46-.69l34.43-85.61c.17-.42.76-.42.93,0l34.43,85.61c.13.33-.11.69-.46.69Z" fill="#363438"/>
    <path d="M193.31,12.13h-4.56.01s-19.74-.01-19.74-.01c-1.26,0-2.41.74-2.93,1.9l-60.87,136.14c-.18.39-.74.39-.91,0L43.44,14.02c-.52-1.15-1.67-1.9-2.93-1.9h-24.29c-1.05,0-1.9.85-1.9,1.9v159.43c0,1.05.85,1.9,1.9,1.9h15.5c1.05,0,1.9-.85,1.9-1.9V40.82c0-.54.74-.7.96-.2l59.56,133.21c.41.92,1.33,1.51,2.33,1.51h16.61c1.01,0,1.92-.59,2.33-1.51l59.56-133.22c.22-.49.96-.34.96.2v132.63c0,1.05.85,1.9,1.9,1.9h15.5c1.05,0,1.9-.85,1.9-1.9V14.03c0-1.05-.85-1.9-1.9-1.9Z" fill="#363438"/>
    <path d="M368.64,60.1V14.05c0-1.05-.86-1.93-1.93-1.93h-15.45c-.26,0-.52.05-.75.15-.11.05-.21.11-.32.18-.21.14-.38.31-.52.53-.07.1-.13.2-.18.31-.1.23-.15.49-.15.75v23.54c0,4.3-.12,8.75-.04,13.17v8.52c-.25,9.79-1.31,19.39-6.27,28.03-7.83,13.65-23.13,20.31-38.42,20.67-1.07.03-2.15.04-3.22.02h0c-1.07.02-2.15,0-3.22-.02-15.29-.36-30.59-7.02-38.42-20.67-1.35-2.35-2.43-4.78-3.29-7.26-.69-1.99-1.24-4.01-1.68-6.06-1.32-6.15-1.63-12.55-1.62-18.96,0-2.67.06-5.34.13-8,.01-.53.03-1.06.04-1.59.06-2.65.12-5.28.12-7.87h0V14.04h0c0-.26-.05-.52-.15-.75-.05-.11-.11-.21-.18-.31-.05-.07-.1-.13-.16-.2-.11-.13-.22-.24-.36-.33-.06-.04-.11-.06-.16-.09s-.1-.06-.16-.09c-.23-.1-.49-.15-.75-.15h-15.45c-.87,0-1.59.58-1.84,1.37-.06.18-.1.37-.1.56h0v46.05h0c0,2.46.09,4.85.26,7.19.08,1.15.19,2.31.32,3.46s.28,2.3.45,3.45c.02.17.05.33.08.5,2.57,16.2,10.62,31.66,24.34,41.1,9.9,6.83,21.62,10.18,33.54,11.19.92.08,1.83.14,2.75.19,1.84.1,3.67.15,5.51.15,33.28,0,45.1-17.45,48.01-21.15.15-.19.46-.08.45.16-.94,15.49-7.92,40.88-26.14,49.87-23.03,11.36-60.44,2.68-75.16-2.31-.98-.33-2.05.17-2.4,1.15l-5.21,14.27c-.37,1,.16,2.11,1.17,2.45,6.53,2.19,28.87,9.06,52.75,9.06,12.7,0,25.84-1.95,37.26-7.58,38.14-18.82,36.33-65.64,36.46-75.17v-34.42c.04-1.17.07-2.36.07-3.56Z" fill="#363438"/>
    <path d="M517.77,96.84c-2.76-2.61-5.87-4.92-9.31-6.94,1.35-.93,2.63-1.94,3.85-3,14.7-12.85,14.19-29.94,13.96-33.12-.1-2.94-1.2-17.44-13.7-29.18-10.78-10.13-26.53-15.27-46.84-15.27-.43,0-.86,0-1.28.01h-.08c-34.48-.01-51.23,5.17-55.98,6.95-.85.32-1.35,1.21-1.19,2.1l2.17,12.43c.19,1.09,1.26,1.77,2.34,1.51,27.04-6.71,55.07-5.17,59.55-4.84.41.03.82.06,1.23.09.36.03.68.06.93.08.15.01.3.03.45.04.31.03.47.05.47.05,31.33,3.22,32.6,23.96,32.64,26.41l-.03.33.08.59c.03.45.89,11.15-8.1,18.84-3.95,3.38-9.32,5.54-15.99,6.96-7.74,1.65-17.57,1.9-28.27,1.49-.85-.03-1.56.65-1.56,1.5v13.15c0,.85.7,1.53,1.56,1.49,9.34-.39,20.25-.46,28.13,1.24,8.98,1.92,16.07,4.95,21.03,9.54,9.66,8.95,8.55,20.31,8.5,20.7l-.09.51.02.78c.01.46.04,11.25-9.15,19.93-8.12,7.67-21.16,11.56-38.74,11.56h-9.92c-11.5-.26-31.47-1.95-51.61-6.86-1.04-.25-2.08.39-2.31,1.43-.73,3.33-2.21,10.16-2.9,13.34-.21.97.36,1.94,1.31,2.22,6.18,1.84,29.21,7.86,65.44,7.86,23.16,0,40.92-5.79,52.8-17.22,13.38-12.87,14.34-28.57,14.38-32.06.31-3.68.86-20.82-13.78-34.65Z" fill="#363438"/>
    <path d="M184.39,262.55c-4.43-31.59-26.23-53.54-58.47-55.77-5.82-.15-13.46-.04-20.56.05-.28,0-.5-.22-.5-.5v-7.68c0-1.05-.85-1.9-1.9-1.9h-15.58c-1.05,0-1.9.85-1.9,1.9v7.68c0,.28-.22.5-.5.5-5.69-.05-11.74-.1-15.78-.13-19.27-.26-38.92,8.13-50.48,23.87-10.44,13.91-13.82,31.54-13.89,48.43-.17,38.46,19.1,68.89,59.7,72.2,5.79.15,13.37.04,20.44-.04.28,0,.5.22.5.5v16.6c0,1.05.85,1.9,1.9,1.9h15.58c1.05,0,1.9-.85,1.9-1.9v-16.61c0-.28.23-.5.5-.5,2.63.02,4.74.04,4.74.04,4.6-.03,11.34.25,15.82,0,24.55-1.51,45.71-15.94,54.24-39.27,5.83-15.91,6.55-32.77,4.23-49.37ZM80.09,332.95c-2.56-.03-8.96-.05-11.45-.08-5.03-.04-10.44-.99-15.23-2.67-22.2-7.32-29.78-29.16-29.57-51.21.06-9.21,1.15-18.28,4.16-26.24,5.8-16.43,20.85-26.37,37.78-27.52,5.37-.19,12.53-.21,19.21-.24.28,0,.5.22.5.5v107c0,.28-.23.5-.5.5-2.71-.02-4.89-.04-4.89-.04ZM162.47,305.23c-6.9,19.16-24.94,28.46-44.5,27.65-2.71.02-7.76.06-12.62.1-.28,0-.5-.22-.5-.5v-107c0-.28.22-.5.5-.5,4.86.04,9.93.07,12.62.1,10.43-.39,21.54,2.12,30.05,8.28,14.33,10.11,18.64,28.37,18.6,45.62-.06,9.21-1.15,18.28-4.15,26.24Z" fill="#363438"/>
  </g>
  <g>
    <path d="M1512.16,12.12h-125.1c-1.05,0-1.9.86-1.9,1.9v14.12c0,1.05.85,1.9,1.9,1.9h105.98c.29,0,.52.24.5.53-.41,9.45-4.75,16.35-15.23,24.36l-74.55,56.97c-16.62,12.71-23.64,26.2-24.2,46.55-.02.6-.03,7.18-.04,13.3v1.74c0,1.07.87,1.94,1.94,1.94h125.1c1.05,0,1.9-.85,1.9-1.9v-14.12c0-1.05-.85-1.9-1.9-1.9h-106.4c-.28,0-.51-.24-.5-.52.27-13.46,4.3-21.04,15.65-29.71l74.55-56.97c15.12-11.55,22.26-23.86,23.88-41.16.25-2.52.37-5.16.37-8.08v-7.02c0-1.07-.87-1.94-1.94-1.94Z" fill="#363438"/>
    <path d="M1680.8,173.2l-65.16-159.88c-.3-.73-.99-1.2-1.78-1.2h-17.38c-.79,0-1.49.47-1.78,1.2l-65.15,159.88c-.21.5-.15,1.07.15,1.52.3.45.81.72,1.35.72h17.31c.8,0,1.52-.48,1.82-1.23l12.59-31.34c.15-.37.5-.61.9-.61h82.95c.41-.01.77.24.92.61l12.6,31.33c.3.75,1.02,1.23,1.82,1.23h17.31c.54,0,1.05-.27,1.35-.72.3-.45.36-1.02.16-1.52ZM1639.62,124.98h-68.9c-.35,0-.59-.36-.46-.68l34.45-85.68c.17-.41.75-.41.92,0l34.46,85.68c.13.33-.11.68-.46.68Z" fill="#363438"/>
    <path d="M1170.71,12.13h-4.57.01s-19.76-.01-19.76-.01c-1.26,0-2.41.74-2.93,1.9l-60.9,136.22c-.18.39-.74.39-.91,0l-60.9-136.22c-.52-1.15-1.67-1.9-2.93-1.9h-24.3c-1.05,0-1.9.86-1.9,1.9v159.53c0,1.05.85,1.9,1.9,1.9h15.51c1.05,0,1.9-.85,1.9-1.9V40.84c0-.54.74-.7.96-.2l59.59,133.29c.41.92,1.33,1.51,2.33,1.51h16.62c1.01,0,1.92-.59,2.33-1.51l59.59-133.3c.22-.49.96-.34.96.2v132.72c0,1.05.85,1.9,1.9,1.9h15.52c1.04,0,1.89-.85,1.89-1.89V14.03c0-1.05-.85-1.9-1.9-1.9Z" fill="#363438"/>
    <path d="M991.62,368.6v-159.56c0-1.04.84-1.88,1.88-1.88h111.26c1.04,0,1.88.84,1.88,1.88v13.36c0,1.04-.84,1.88-1.88,1.88h-93.24c-.27,0-.5.22-.5.5v62.6c0,.27.22.5.5.5h82.31c1.04,0,1.88.84,1.88,1.88v13.58c0,1.04-.84,1.88-1.88,1.88h-82.31c-.27,0-.5.22-.5.5v62.9c0,1.04-.84,1.88-1.88,1.88h-15.64c-1.04,0-1.88-.84-1.88-1.88Z" fill="#363438"/>
    <path d="M1208.02,374.14c-16.35,0-30.03-3.49-41.02-10.48-11-6.98-19.29-16.57-24.86-28.76-5.57-12.19-8.36-30.66-8.36-45.97s2.79-33.76,8.36-45.95c5.57-12.19,13.86-21.77,24.86-28.76,11-6.98,24.67-10.48,41.02-10.48s29.99,3.49,40.91,10.48c10.92,6.99,19.17,16.58,24.75,28.76,5.57,12.19,8.36,30.49,8.36,45.95s-2.79,33.78-8.36,45.97c-5.57,12.19-13.82,21.78-24.75,28.76-10.92,6.99-24.56,10.48-40.91,10.48ZM1208.02,356.53c12.49,0,22.74-2.86,30.77-8.58,8.03-5.72,13.93-13.34,17.73-22.85,3.79-9.51,5.69-24.71,5.69-36.16,0-8.62-1.08-21.24-3.23-28.89-2.16-7.65-5.46-14.38-9.92-20.18-4.46-5.8-10.11-10.33-16.94-13.6-6.84-3.27-14.86-4.9-24.08-4.9-12.34,0-22.56,2.9-30.66,8.7-8.1,5.8-14.12,13.45-18.06,22.96-3.94,9.51-5.91,24.47-5.91,35.92s1.93,26.43,5.8,35.94c3.86,9.51,9.85,17.17,17.95,22.96,8.1,5.8,18.39,8.7,30.88,8.7Z" fill="#363438"/>
    <path d="M1319.67,368.58v-159.51c0-1.05.85-1.9,1.9-1.9h75.61c8.77,0,16.61.89,23.52,2.68,6.91,1.78,12.82,4.61,17.72,8.47,4.91,3.87,8.66,8.96,11.26,15.27,2.6,6.32,3.9,13.93,3.9,22.85s-1.64,16.24-4.91,22.41c-3.27,6.17-7.58,11.19-12.93,15.05-5.18,3.75-10.79,6.51-16.81,8.3-.3.09-.44.43-.3.7l34.83,65.91c.4.76-.15,1.67-1.01,1.67h-17.62c-1.02,0-1.95-.56-2.43-1.46l-33.4-62.78c-.17-.33-.51-.53-.88-.53h-58.57c-.28,0-.5.22-.5.5v62.36c0,1.05-.85,1.9-1.9,1.9h-15.59c-1.05,0-1.9-.85-1.9-1.9ZM1339.06,287.59c0,.28.23.51.51.51h51.37c5.8,0,11.26-.45,16.39-1.34,5.13-.89,9.66-2.49,13.6-4.79,3.94-2.3,7.02-5.57,9.25-9.81,2.23-4.24,3.42-9.7,3.57-16.39.15-7.58-1.26-13.63-4.24-18.17-2.97-4.53-7.36-7.8-13.15-9.81-5.8-2.01-12.86-3.01-21.18-3.01h-55.6c-.28,0-.51.23-.51.51v62.31Z" fill="#363438"/>
    <path d="M1675.88,207.29h-4.57.01s-19.76-.01-19.76-.01c-1.26,0-2.41.74-2.93,1.9l-60.9,136.22c-.18.39-.74.39-.91,0l-60.9-136.22c-.52-1.15-1.67-1.9-2.93-1.9h-24.29c-1.05,0-1.91.86-1.91,1.91v159.52c0,1.05.85,1.9,1.9,1.9h15.5c1.05,0,1.9-.85,1.9-1.9v-132.73c0-.54.73-.69.95-.2l59.6,133.31c.41.92,1.33,1.51,2.33,1.51h16.62c1.01,0,1.92-.59,2.33-1.51l59.6-133.32c.22-.49.95-.33.95.2v132.73c0,1.05.85,1.9,1.9,1.9h15.51c1.04,0,1.89-.85,1.89-1.89v-159.51c0-1.05-.85-1.9-1.9-1.9Z" fill="#363438"/>
    <path d="M1341.42,12.13h-15.44c-1.06,0-1.93.87-1.93,1.93v99.93c0,31.39-16.59,47.99-47.99,47.99s-47.98-16.59-47.98-47.99V14.06c0-1.06-.87-1.93-1.93-1.93h-15.45c-1.06,0-1.93.87-1.93,1.93v99.93c0,42.13,25.15,67.28,67.28,67.28s67.3-25.15,67.3-67.28V14.06c0-1.06-.87-1.93-1.94-1.93Z" fill="#363438"/>
  </g>
  <rect x="837.56" y="9.74" width="19.31" height="364.8" rx="1.72" ry="1.72" fill="#363438"/>
</svg>