<?xml version="1.0" encoding="UTF-8"?>
<svg id="Layer_1" xmlns="http://www.w3.org/2000/svg" version="1.1" viewBox="0 0 60 82">
  <!-- Generator: Adobe Illustrator 29.5.1, SVG Export Plug-In . SVG Version: 2.1.0 Build 141)  -->
  <path d="M29.7,0C13.3,0,0,13.28,0,29.69c0,18.78,18.59,41.29,26.36,49.86,3.24,3.27,3.64,3.27,6.68,0,7.77-8.58,26.36-31.09,26.36-49.86C59.4,13.28,46.1,0,29.7,0Z" style="fill: #d4664a;"/>
  <path d="M44.29,16.95h-.75,0s-3.25,0-3.25,0c-.21,0-.4.12-.48.31l-10.03,22.43c-.03.06-.12.06-.15,0l-10.03-22.43c-.08-.19-.27-.31-.48-.31h-4c-.17,0-.31.14-.31.31v26.27c0,.17.14.31.31.31h2.55c.17,0,.31-.14.31-.31v-21.85c0-.09.12-.11.16-.03l9.81,21.95c.07.15.22.25.38.25h2.74c.17,0,.32-.1.38-.25l9.81-21.95c.04-.08.16-.06.16.03v21.85c0,.17.14.31.31.31h2.56c.17,0,.31-.14.31-.31v-26.26c0-.17-.14-.31-.31-.31Z" style="fill: #363438;"/>
</svg>