<?xml version="1.0" encoding="UTF-8"?>
<svg id="Layer_1" xmlns="http://www.w3.org/2000/svg" version="1.1" viewBox="0 0 1959.07 3242.18">
  <!-- Generator: Adobe Illustrator 29.5.1, SVG Export Plug-In . SVG Version: 2.1.0 Build 141)  -->
  <defs>
    <style>
      .st0 {
        fill: none;
        stroke: #363337;
        stroke-miterlimit: 10;
      }
    </style>
  </defs>
  <path class="st0" d="M.07,1553.05h3.94c60.07,0,120.05,12.18,179.43,36.44l126.96,51.87c59.37,24.26,119.35,36.44,179.43,36.44M.07,1507.69h3.94c60.07,0,120.05,12.18,179.43,36.44l126.96,51.87c59.37,24.26,119.35,36.44,179.43,36.44M.07,1462.33h3.94c60.07,0,120.05,12.18,179.43,36.44l126.96,51.87c59.37,24.26,119.35,36.44,179.43,36.44M489.82,1541.71h3.94c60.07,0,120.05,12.18,179.43,36.44l126.95,51.87c59.37,24.26,119.35,36.44,179.43,36.44M.07,1416.97h3.94c60.07,0,120.05,12.18,179.43,36.44l126.96,51.87c59.37,24.26,119.35,36.44,179.43,36.44M489.82,1496.35h3.94c60.07,0,120.05,12.18,179.43,36.44l126.95,51.87c59.37,24.26,119.35,36.44,179.43,36.44M.07,1371.61h3.94c60.07,0,120.05,12.18,179.43,36.44l126.96,51.87c59.37,24.26,119.35,36.44,179.43,36.44M489.82,1450.99h3.94c60.07,0,120.05,12.18,179.43,36.44l126.95,51.87c59.37,24.26,119.35,36.44,179.43,36.44M.07,1326.25h3.94c60.07,0,120.05,12.18,179.43,36.44l126.96,51.87c59.37,24.26,119.35,36.44,179.43,36.44M979.57,1530.37h3.94c60.07,0,120.06,12.18,179.43,36.44l126.95,51.87c59.37,24.26,119.36,36.44,179.43,36.44M489.82,1405.63h3.94c60.07,0,120.05,12.18,179.43,36.44l126.95,51.87c59.37,24.26,119.35,36.44,179.43,36.44M.07,1280.89h3.94c60.07,0,120.05,12.18,179.43,36.44l126.96,51.87c59.37,24.26,119.35,36.44,179.43,36.44M979.57,1485.01h3.94c60.07,0,120.06,12.18,179.43,36.44l126.95,51.87c59.37,24.26,119.36,36.44,179.43,36.44M489.82,1360.27h3.94c60.07,0,120.05,12.18,179.43,36.44l126.95,51.87c59.37,24.26,119.35,36.44,179.43,36.44M.07,1235.53h3.94c60.07,0,120.05,12.18,179.43,36.44l126.96,51.87c59.37,24.26,119.35,36.44,179.43,36.44M979.57,1439.65h3.94c60.07,0,120.06,12.18,179.43,36.44l126.95,51.87c59.37,24.26,119.36,36.44,179.43,36.44M489.82,1314.91h3.94c60.07,0,120.05,12.18,179.43,36.44l126.95,51.87c59.37,24.26,119.35,36.44,179.43,36.44M.07,1190.17h3.94c60.07,0,120.05,12.18,179.43,36.44l126.96,51.87c59.37,24.26,119.35,36.44,179.43,36.44M1469.32,1519.03h3.94c60.07,0,120.05,12.18,179.43,36.44l126.95,51.87c59.37,24.26,119.36,36.44,179.43,36.44M979.57,1394.29h3.94c60.07,0,120.06,12.18,179.43,36.44l126.95,51.87c59.37,24.26,119.36,36.44,179.43,36.44M489.82,1269.55h3.94c60.07,0,120.05,12.18,179.43,36.44l126.95,51.87c59.37,24.26,119.35,36.44,179.43,36.44M.07,1144.81h3.94c60.07,0,120.05,12.18,179.43,36.44l126.96,51.87c59.37,24.26,119.35,36.44,179.43,36.44M1469.32,1473.67h3.94c60.07,0,120.05,12.18,179.43,36.44l126.95,51.87c59.37,24.26,119.36,36.44,179.43,36.44M979.57,1348.93h3.94c60.07,0,120.06,12.18,179.43,36.44l126.95,51.87c59.37,24.26,119.36,36.44,179.43,36.44M489.82,1224.19h3.94c60.07,0,120.05,12.18,179.43,36.44l126.95,51.87c59.37,24.26,119.35,36.44,179.43,36.44M.07,1099.45h3.94c60.07,0,120.05,12.18,179.43,36.44l126.96,51.87c59.37,24.26,119.35,36.44,179.43,36.44M1469.32,1428.31h3.94c60.07,0,120.05,12.18,179.43,36.44l126.95,51.87c59.37,24.26,119.36,36.44,179.43,36.44M979.57,1303.57h3.94c60.07,0,120.06,12.18,179.43,36.44l126.95,51.87c59.37,24.26,119.36,36.44,179.43,36.44M489.82,1178.83h3.94c60.07,0,120.05,12.18,179.43,36.44l126.95,51.87c59.37,24.26,119.35,36.44,179.43,36.44M.07,1054.09h3.94c60.07,0,120.05,12.18,179.43,36.44l126.96,51.87c59.37,24.26,119.35,36.44,179.43,36.44M1469.32,1382.95h3.94c60.07,0,120.05,12.18,179.43,36.44l126.95,51.87c59.37,24.26,119.36,36.44,179.43,36.44M979.57,1258.21h3.94c60.07,0,120.06,12.18,179.43,36.44l126.95,51.87c59.37,24.26,119.36,36.44,179.43,36.44M489.82,1133.47h3.94c60.07,0,120.05,12.18,179.43,36.44l126.95,51.87c59.37,24.26,119.35,36.44,179.43,36.44M.07,1008.73h3.94c60.07,0,120.05,12.18,179.43,36.44l126.96,51.87c59.37,24.26,119.35,36.44,179.43,36.44M1469.32,1337.59h3.94c60.07,0,120.05,12.18,179.43,36.44l126.95,51.87c59.37,24.26,119.36,36.44,179.43,36.44M979.57,1212.85h3.94c60.07,0,120.06,12.18,179.43,36.44l126.95,51.87c59.37,24.26,119.36,36.44,179.43,36.44M489.82,1088.11h3.94c60.07,0,120.05,12.18,179.43,36.44l126.95,51.87c59.37,24.26,119.35,36.44,179.43,36.44M.07,963.37h3.94c60.07,0,120.05,12.18,179.43,36.44l126.96,51.87c59.37,24.26,119.35,36.44,179.43,36.44M1469.32,1292.23h3.94c60.07,0,120.05,12.18,179.43,36.44l126.95,51.87c59.37,24.26,119.36,36.44,179.43,36.44M979.57,1167.49h3.94c60.07,0,120.06,12.18,179.43,36.44l126.95,51.87c59.37,24.26,119.36,36.44,179.43,36.44M489.82,1042.75h3.94c60.07,0,120.05,12.18,179.43,36.44l126.95,51.87c59.37,24.26,119.35,36.44,179.43,36.44M.07,918.01h3.94c60.07,0,120.05,12.18,179.43,36.44l126.96,51.87c59.37,24.26,119.35,36.44,179.43,36.44M1469.32,1246.87h3.94c60.07,0,120.05,12.18,179.43,36.44l126.95,51.87c59.37,24.26,119.36,36.44,179.43,36.44M979.57,1122.13h3.94c60.07,0,120.06,12.18,179.43,36.44l126.95,51.87c59.37,24.26,119.36,36.44,179.43,36.44M489.82,997.39h3.94c60.07,0,120.05,12.18,179.43,36.44l126.95,51.87c59.37,24.26,119.35,36.44,179.43,36.44M.07,872.65h3.94c60.07,0,120.05,12.18,179.43,36.44l126.96,51.87c59.37,24.26,119.35,36.44,179.43,36.44M1469.32,1201.51h3.94c60.07,0,120.05,12.18,179.43,36.44l126.95,51.87c59.37,24.26,119.36,36.44,179.43,36.44M979.57,1076.77h3.94c60.07,0,120.06,12.18,179.43,36.44l126.95,51.87c59.37,24.26,119.36,36.44,179.43,36.44M489.82,952.03h3.94c60.07,0,120.05,12.18,179.43,36.44l126.95,51.87c59.37,24.26,119.35,36.44,179.43,36.44M.07,827.29h3.94c60.07,0,120.05,12.18,179.43,36.44l126.96,51.87c59.37,24.26,119.35,36.44,179.43,36.44M1469.32,1156.15h3.94c60.07,0,120.05,12.18,179.43,36.44l126.95,51.87c59.37,24.26,119.36,36.44,179.43,36.44M979.57,1031.41h3.94c60.07,0,120.06,12.18,179.43,36.44l126.95,51.87c59.37,24.26,119.36,36.44,179.43,36.44M489.82,906.67h3.94c60.07,0,120.05,12.18,179.43,36.44l126.95,51.87c59.37,24.26,119.35,36.44,179.43,36.44M.07,781.93h3.94c60.07,0,120.05,12.18,179.43,36.44l126.96,51.87c59.37,24.26,119.35,36.44,179.43,36.44M1469.32,1110.79h3.94c60.07,0,120.05,12.18,179.43,36.44l126.95,51.87c59.37,24.26,119.36,36.44,179.43,36.44M979.57,986.05h3.94c60.07,0,120.06,12.18,179.43,36.44l126.95,51.87c59.37,24.26,119.36,36.44,179.43,36.44M489.82,861.31h3.94c60.07,0,120.05,12.18,179.43,36.44l126.95,51.87c59.37,24.26,119.35,36.44,179.43,36.44M.07,736.57h3.94c60.07,0,120.05,12.18,179.43,36.44l126.96,51.87c59.37,24.26,119.35,36.44,179.43,36.44M1469.32,1065.43h3.94c60.07,0,120.05,12.18,179.43,36.44l126.95,51.87c59.37,24.26,119.36,36.44,179.43,36.44M979.57,940.69h3.94c60.07,0,120.06,12.18,179.43,36.44l126.95,51.87c59.37,24.26,119.36,36.44,179.43,36.44M489.82,815.95h3.94c60.07,0,120.05,12.18,179.43,36.44l126.95,51.87c59.37,24.26,119.35,36.44,179.43,36.44M.07,691.21h3.94c60.07,0,120.05,12.18,179.43,36.44l126.96,51.87c59.37,24.26,119.35,36.44,179.43,36.44M1469.32,1020.07h3.94c60.07,0,120.05,12.18,179.43,36.44l126.95,51.87c59.37,24.26,119.36,36.44,179.43,36.44M979.57,895.33h3.94c60.07,0,120.06,12.18,179.43,36.44l126.95,51.87c59.37,24.26,119.36,36.44,179.43,36.44M489.82,770.59h3.94c60.07,0,120.05,12.18,179.43,36.44l126.95,51.87c59.37,24.26,119.35,36.44,179.43,36.44M.07,645.85h3.94c60.07,0,120.05,12.18,179.43,36.44l126.96,51.87c59.37,24.26,119.35,36.44,179.43,36.44M1469.32,974.71h3.94c60.07,0,120.05,12.18,179.43,36.44l126.95,51.87c59.37,24.26,119.36,36.44,179.43,36.44M979.57,849.97h3.94c60.07,0,120.06,12.18,179.43,36.44l126.95,51.87c59.37,24.26,119.36,36.44,179.43,36.44M489.82,725.23h3.94c60.07,0,120.05,12.18,179.43,36.44l126.95,51.87c59.37,24.26,119.35,36.44,179.43,36.44M.07,600.49h3.94c60.07,0,120.05,12.18,179.43,36.44l126.96,51.87c59.37,24.26,119.35,36.44,179.43,36.44M1469.32,929.35h3.94c60.07,0,120.05,12.18,179.43,36.44l126.95,51.87c59.37,24.26,119.36,36.44,179.43,36.44M979.57,804.61h3.94c60.07,0,120.06,12.18,179.43,36.44l126.95,51.87c59.37,24.26,119.36,36.44,179.43,36.44M489.82,679.87h3.94c60.07,0,120.05,12.18,179.43,36.44l126.95,51.87c59.37,24.26,119.35,36.44,179.43,36.44M.07,555.13h3.94c60.07,0,120.05,12.18,179.43,36.44l126.96,51.87c59.37,24.26,119.35,36.44,179.43,36.44M1469.32,883.99h3.94c60.07,0,120.05,12.18,179.43,36.44l126.95,51.87c59.37,24.26,119.36,36.44,179.43,36.44M979.57,759.25h3.94c60.07,0,120.06,12.18,179.43,36.44l126.95,51.87c59.37,24.26,119.36,36.44,179.43,36.44M489.82,634.51h3.94c60.07,0,120.05,12.18,179.43,36.44l126.95,51.87c59.37,24.26,119.35,36.44,179.43,36.44M.07,509.77h3.94c60.07,0,120.05,12.18,179.43,36.44l126.96,51.87c59.37,24.26,119.35,36.44,179.43,36.44M1469.32,838.63h3.94c60.07,0,120.05,12.18,179.43,36.44l126.95,51.87c59.37,24.26,119.36,36.44,179.43,36.44M979.57,713.89h3.94c60.07,0,120.06,12.18,179.43,36.44l126.95,51.87c59.37,24.26,119.36,36.44,179.43,36.44M489.82,589.15h3.94c60.07,0,120.05,12.18,179.43,36.44l126.95,51.87c59.37,24.26,119.35,36.44,179.43,36.44M.07,464.41h3.94c60.07,0,120.05,12.18,179.43,36.44l126.96,51.87c59.37,24.26,119.35,36.44,179.43,36.44M1469.32,793.27h3.94c60.07,0,120.05,12.18,179.43,36.44l126.95,51.87c59.37,24.26,119.36,36.44,179.43,36.44M979.57,668.53h3.94c60.07,0,120.06,12.18,179.43,36.44l126.95,51.87c59.37,24.26,119.36,36.44,179.43,36.44M489.82,543.79h3.94c60.07,0,120.05,12.18,179.43,36.44l126.95,51.87c59.37,24.26,119.35,36.44,179.43,36.44M.07,419.05h3.94c60.07,0,120.05,12.18,179.43,36.44l126.96,51.87c59.37,24.26,119.35,36.44,179.43,36.44M1469.32,747.91h3.94c60.07,0,120.05,12.18,179.43,36.44l126.95,51.87c59.37,24.26,119.36,36.44,179.43,36.44M979.57,623.17h3.94c60.07,0,120.06,12.18,179.43,36.44l126.95,51.87c59.37,24.26,119.36,36.44,179.43,36.44M489.82,498.43h3.94c60.07,0,120.05,12.18,179.43,36.44l126.95,51.87c59.37,24.26,119.35,36.44,179.43,36.44M.07,373.69h3.94c60.07,0,120.05,12.18,179.43,36.44l126.96,51.87c59.37,24.26,119.35,36.44,179.43,36.44M1469.32,702.55h3.94c60.07,0,120.05,12.18,179.43,36.44l126.95,51.87c59.37,24.26,119.36,36.44,179.43,36.44M979.57,577.81h3.94c60.07,0,120.06,12.18,179.43,36.44l126.95,51.87c59.37,24.26,119.36,36.44,179.43,36.44M489.82,453.07h3.94c60.07,0,120.05,12.18,179.43,36.44l126.95,51.87c59.37,24.26,119.35,36.44,179.43,36.44M.07,328.33h3.94c60.07,0,120.05,12.18,179.43,36.44l126.96,51.87c59.37,24.26,119.35,36.44,179.43,36.44M1469.32,657.19h3.94c60.07,0,120.05,12.18,179.43,36.44l126.95,51.87c59.37,24.26,119.36,36.44,179.43,36.44M979.57,532.45h3.94c60.07,0,120.06,12.18,179.43,36.44l126.95,51.87c59.37,24.26,119.36,36.44,179.43,36.44M489.82,407.71h3.94c60.07,0,120.05,12.18,179.43,36.44l126.95,51.87c59.37,24.26,119.35,36.44,179.43,36.44M.07,282.97h3.94c60.07,0,120.05,12.18,179.43,36.44l126.96,51.87c59.37,24.26,119.35,36.44,179.43,36.44M1469.32,611.83h3.94c60.07,0,120.05,12.18,179.43,36.44l126.95,51.87c59.37,24.26,119.36,36.44,179.43,36.44M979.57,487.09h3.94c60.07,0,120.06,12.18,179.43,36.44l126.95,51.87c59.37,24.26,119.36,36.44,179.43,36.44M489.82,362.35h3.94c60.07,0,120.05,12.18,179.43,36.44l126.95,51.87c59.37,24.26,119.35,36.44,179.43,36.44M.07,237.61h3.94c60.07,0,120.05,12.18,179.43,36.44l126.96,51.87c59.37,24.26,119.35,36.44,179.43,36.44M1469.32,566.47h3.94c60.07,0,120.05,12.18,179.43,36.44l126.95,51.87c59.37,24.26,119.36,36.44,179.43,36.44M979.57,441.73h3.94c60.07,0,120.06,12.18,179.43,36.44l126.95,51.87c59.37,24.26,119.36,36.44,179.43,36.44M489.82,316.99h3.94c60.07,0,120.05,12.18,179.43,36.44l126.95,51.87c59.37,24.26,119.35,36.44,179.43,36.44M.07,192.25h3.94c60.07,0,120.05,12.18,179.43,36.44l126.96,51.87c59.37,24.26,119.35,36.44,179.43,36.44M1469.32,521.11h3.94c60.07,0,120.05,12.18,179.43,36.44l126.95,51.87c59.37,24.26,119.36,36.44,179.43,36.44M979.57,396.37h3.94c60.07,0,120.06,12.18,179.43,36.44l126.95,51.87c59.37,24.26,119.36,36.44,179.43,36.44M489.82,271.63h3.94c60.07,0,120.05,12.18,179.43,36.44l126.95,51.87c59.37,24.26,119.35,36.44,179.43,36.44M.07,146.89h3.94c60.07,0,120.05,12.18,179.43,36.44l126.96,51.87c59.37,24.26,119.35,36.44,179.43,36.44M1469.32,475.75h3.94c60.07,0,120.05,12.18,179.43,36.44l126.95,51.87c59.37,24.26,119.36,36.44,179.43,36.44M979.57,351.01h3.94c60.07,0,120.06,12.18,179.43,36.44l126.95,51.87c59.37,24.26,119.36,36.44,179.43,36.44M489.82,226.27h3.94c60.07,0,120.05,12.18,179.43,36.44l126.95,51.87c59.37,24.26,119.35,36.44,179.43,36.44M.07,101.53h3.94c60.07,0,120.05,12.18,179.43,36.44l126.96,51.87c59.37,24.26,119.35,36.44,179.43,36.44M1469.32,430.39h3.94c60.07,0,120.05,12.18,179.43,36.44l126.95,51.87c59.37,24.26,119.36,36.44,179.43,36.44M979.57,305.65h3.94c60.07,0,120.06,12.18,179.43,36.44l126.95,51.87c59.37,24.26,119.36,36.44,179.43,36.44M489.82,180.91h3.94c60.07,0,120.05,12.18,179.43,36.44l126.95,51.87c59.37,24.26,119.35,36.44,179.43,36.44M.07,56.17h3.94c60.07,0,120.05,12.18,179.43,36.44l126.96,51.87c59.37,24.26,119.35,36.44,179.43,36.44M1469.32,385.03h3.94c60.07,0,120.05,12.18,179.43,36.44l126.95,51.87c59.37,24.26,119.36,36.44,179.43,36.44M979.57,260.29h3.94c60.07,0,120.06,12.18,179.43,36.44l126.95,51.87c59.37,24.26,119.36,36.44,179.43,36.44M489.82,135.55h3.94c60.07,0,120.05,12.18,179.43,36.44l126.95,51.87c59.37,24.26,119.35,36.44,179.43,36.44M1469.32,339.67h3.94c60.07,0,120.05,12.18,179.43,36.44l126.95,51.87c59.37,24.26,119.36,36.44,179.43,36.44M979.57,214.93h3.94c60.07,0,120.06,12.18,179.43,36.44l126.95,51.87c59.37,24.26,119.36,36.44,179.43,36.44M489.82,90.19h3.94c60.07,0,120.05,12.18,179.43,36.44l126.95,51.87c59.37,24.26,119.35,36.44,179.43,36.44M1469.32,294.31h3.94c60.07,0,120.05,12.18,179.43,36.44l126.95,51.87c59.37,24.26,119.36,36.44,179.43,36.44M979.57,169.57h3.94c60.07,0,120.06,12.18,179.43,36.44l126.95,51.87c59.37,24.26,119.36,36.44,179.43,36.44M489.82,44.83h3.94c60.07,0,120.05,12.18,179.43,36.44l126.95,51.87c59.37,24.26,119.35,36.44,179.43,36.44M1469.32,248.95h3.94c60.07,0,120.05,12.18,179.43,36.44l126.95,51.87c59.37,24.26,119.36,36.44,179.43,36.44M979.57,124.21h3.94c60.07,0,120.06,12.18,179.43,36.44l126.95,51.87c59.37,24.26,119.36,36.44,179.43,36.44M1469.32,203.59h3.94c60.07,0,120.05,12.18,179.43,36.44l126.95,51.87c59.37,24.26,119.36,36.44,179.43,36.44M979.57,78.85h3.94c60.07,0,120.06,12.18,179.43,36.44l126.95,51.87c59.37,24.26,119.36,36.44,179.43,36.44M1469.32,158.23h3.94c60.07,0,120.05,12.18,179.43,36.44l126.95,51.87c59.37,24.26,119.36,36.44,179.43,36.44M979.57,33.49h3.94c60.07,0,120.06,12.18,179.43,36.44l126.95,51.87c59.37,24.26,119.36,36.44,179.43,36.44M1469.32,112.87h3.94c60.07,0,120.05,12.18,179.43,36.44l126.95,51.87c59.37,24.26,119.36,36.44,179.43,36.44M1469.32,67.51h3.94c60.07,0,120.05,12.18,179.43,36.44l126.95,51.87c59.37,24.26,119.36,36.44,179.43,36.44M1469.32,22.15h3.94c60.07,0,120.05,12.18,179.43,36.44l126.95,51.87c59.37,24.26,119.36,36.44,179.43,36.44"/>
  <path class="st0" d="M0,3095.3h3.94c60.07,0,120.05,12.18,179.43,36.44l126.96,51.87c59.37,24.26,119.35,36.44,179.43,36.44M0,3049.94h3.94c60.07,0,120.05,12.18,179.43,36.44l126.96,51.87c59.37,24.26,119.35,36.44,179.43,36.44M0,3004.57h3.94c60.07,0,120.05,12.18,179.43,36.44l126.96,51.87c59.37,24.26,119.35,36.44,179.43,36.44M489.75,3083.96h3.94c60.07,0,120.05,12.18,179.43,36.44l126.95,51.87c59.37,24.26,119.35,36.44,179.43,36.44M0,2959.22h3.94c60.07,0,120.05,12.18,179.43,36.44l126.96,51.87c59.37,24.26,119.35,36.44,179.43,36.44M489.75,3038.6h3.94c60.07,0,120.05,12.18,179.43,36.44l126.95,51.87c59.37,24.26,119.35,36.44,179.43,36.44M0,2913.86h3.94c60.07,0,120.05,12.18,179.43,36.44l126.96,51.87c59.37,24.26,119.35,36.44,179.43,36.44M489.75,2993.24h3.94c60.07,0,120.05,12.18,179.43,36.44l126.95,51.87c59.37,24.26,119.35,36.44,179.43,36.44M0,2868.5h3.94c60.07,0,120.05,12.18,179.43,36.44l126.96,51.87c59.37,24.26,119.35,36.44,179.43,36.44M979.5,3072.62h3.94c60.07,0,120.06,12.18,179.43,36.44l126.95,51.87c59.37,24.26,119.36,36.44,179.43,36.44M489.75,2947.87h3.94c60.07,0,120.05,12.18,179.43,36.44l126.95,51.87c59.37,24.26,119.35,36.44,179.43,36.44M0,2823.13h3.94c60.07,0,120.05,12.18,179.43,36.44l126.96,51.87c59.37,24.26,119.35,36.44,179.43,36.44M979.5,3027.26h3.94c60.07,0,120.06,12.18,179.43,36.44l126.95,51.87c59.37,24.26,119.36,36.44,179.43,36.44M489.75,2902.52h3.94c60.07,0,120.05,12.18,179.43,36.44l126.95,51.87c59.37,24.26,119.35,36.44,179.43,36.44M0,2777.77h3.94c60.07,0,120.05,12.18,179.43,36.44l126.96,51.87c59.37,24.26,119.35,36.44,179.43,36.44M979.5,2981.9h3.94c60.07,0,120.06,12.18,179.43,36.44l126.95,51.87c59.37,24.26,119.36,36.44,179.43,36.44M489.75,2857.16h3.94c60.07,0,120.05,12.18,179.43,36.44l126.95,51.87c59.37,24.26,119.35,36.44,179.43,36.44M0,2732.41h3.94c60.07,0,120.05,12.18,179.43,36.44l126.96,51.87c59.37,24.26,119.35,36.44,179.43,36.44M1469.25,3061.28h3.94c60.07,0,120.05,12.18,179.43,36.44l126.95,51.87c59.37,24.26,119.36,36.44,179.43,36.44M979.5,2936.53h3.94c60.07,0,120.06,12.18,179.43,36.44l126.95,51.87c59.37,24.26,119.36,36.44,179.43,36.44M489.75,2811.8h3.94c60.07,0,120.05,12.18,179.43,36.44l126.95,51.87c59.37,24.26,119.35,36.44,179.43,36.44M0,2687.05h3.94c60.07,0,120.05,12.18,179.43,36.44l126.96,51.87c59.37,24.26,119.35,36.44,179.43,36.44M1469.25,3015.92h3.94c60.07,0,120.05,12.18,179.43,36.44l126.95,51.87c59.37,24.26,119.36,36.44,179.43,36.44M979.5,2891.17h3.94c60.07,0,120.06,12.18,179.43,36.44l126.95,51.87c59.37,24.26,119.36,36.44,179.43,36.44M489.75,2766.43h3.94c60.07,0,120.05,12.18,179.43,36.44l126.95,51.87c59.37,24.26,119.35,36.44,179.43,36.44M0,2641.69h3.94c60.07,0,120.05,12.18,179.43,36.44l126.96,51.87c59.37,24.26,119.35,36.44,179.43,36.44M1469.25,2970.56h3.94c60.07,0,120.05,12.18,179.43,36.44l126.95,51.87c59.37,24.26,119.36,36.44,179.43,36.44M979.5,2845.81h3.94c60.07,0,120.06,12.18,179.43,36.44l126.95,51.87c59.37,24.26,119.36,36.44,179.43,36.44M489.75,2721.07h3.94c60.07,0,120.05,12.18,179.43,36.44l126.95,51.87c59.37,24.26,119.35,36.44,179.43,36.44M0,2596.33h3.94c60.07,0,120.05,12.18,179.43,36.44l126.96,51.87c59.37,24.26,119.35,36.44,179.43,36.44M1469.25,2925.2h3.94c60.07,0,120.05,12.18,179.43,36.44l126.95,51.87c59.37,24.26,119.36,36.44,179.43,36.44M979.5,2800.46h3.94c60.07,0,120.06,12.18,179.43,36.44l126.95,51.87c59.37,24.26,119.36,36.44,179.43,36.44M489.75,2675.71h3.94c60.07,0,120.05,12.18,179.43,36.44l126.95,51.87c59.37,24.26,119.35,36.44,179.43,36.44M0,2550.97h3.94c60.07,0,120.05,12.18,179.43,36.44l126.96,51.87c59.37,24.26,119.35,36.44,179.43,36.44M1469.25,2879.83h3.94c60.07,0,120.05,12.18,179.43,36.44l126.95,51.87c59.37,24.26,119.36,36.44,179.43,36.44M979.5,2755.09h3.94c60.07,0,120.06,12.18,179.43,36.44l126.95,51.87c59.37,24.26,119.36,36.44,179.43,36.44M489.75,2630.35h3.94c60.07,0,120.05,12.18,179.43,36.44l126.95,51.87c59.37,24.26,119.35,36.44,179.43,36.44M0,2505.61h3.94c60.07,0,120.05,12.18,179.43,36.44l126.96,51.87c59.37,24.26,119.35,36.44,179.43,36.44M1469.25,2834.47h3.94c60.07,0,120.05,12.18,179.43,36.44l126.95,51.87c59.37,24.26,119.36,36.44,179.43,36.44M979.5,2709.73h3.94c60.07,0,120.06,12.18,179.43,36.44l126.95,51.87c59.37,24.26,119.36,36.44,179.43,36.44M489.75,2584.99h3.94c60.07,0,120.05,12.18,179.43,36.44l126.95,51.87c59.37,24.26,119.35,36.44,179.43,36.44M0,2460.25h3.94c60.07,0,120.05,12.18,179.43,36.44l126.96,51.87c59.37,24.26,119.35,36.44,179.43,36.44M1469.25,2789.11h3.94c60.07,0,120.05,12.18,179.43,36.44l126.95,51.87c59.37,24.26,119.36,36.44,179.43,36.44M979.5,2664.37h3.94c60.07,0,120.06,12.18,179.43,36.44l126.95,51.87c59.37,24.26,119.36,36.44,179.43,36.44M489.75,2539.63h3.94c60.07,0,120.05,12.18,179.43,36.44l126.95,51.87c59.37,24.26,119.35,36.44,179.43,36.44M0,2414.89h3.94c60.07,0,120.05,12.18,179.43,36.44l126.96,51.87c59.37,24.26,119.35,36.44,179.43,36.44M1469.25,2743.75h3.94c60.07,0,120.05,12.18,179.43,36.44l126.95,51.87c59.37,24.26,119.36,36.44,179.43,36.44M979.5,2619.01h3.94c60.07,0,120.06,12.18,179.43,36.44l126.95,51.87c59.37,24.26,119.36,36.44,179.43,36.44M489.75,2494.27h3.94c60.07,0,120.05,12.18,179.43,36.44l126.95,51.87c59.37,24.26,119.35,36.44,179.43,36.44M0,2369.53h3.94c60.07,0,120.05,12.18,179.43,36.44l126.96,51.87c59.37,24.26,119.35,36.44,179.43,36.44M1469.25,2698.39h3.94c60.07,0,120.05,12.18,179.43,36.44l126.95,51.87c59.37,24.26,119.36,36.44,179.43,36.44M979.5,2573.65h3.94c60.07,0,120.06,12.18,179.43,36.44l126.95,51.87c59.37,24.26,119.36,36.44,179.43,36.44M489.75,2448.91h3.94c60.07,0,120.05,12.18,179.43,36.44l126.95,51.87c59.37,24.26,119.35,36.44,179.43,36.44M0,2324.17h3.94c60.07,0,120.05,12.18,179.43,36.44l126.96,51.87c59.37,24.26,119.35,36.44,179.43,36.44M1469.25,2653.03h3.94c60.07,0,120.05,12.18,179.43,36.44l126.95,51.87c59.37,24.26,119.36,36.44,179.43,36.44M979.5,2528.29h3.94c60.07,0,120.06,12.18,179.43,36.44l126.95,51.87c59.37,24.26,119.36,36.44,179.43,36.44M489.75,2403.55h3.94c60.07,0,120.05,12.18,179.43,36.44l126.95,51.87c59.37,24.26,119.35,36.44,179.43,36.44M0,2278.81h3.94c60.07,0,120.05,12.18,179.43,36.44l126.96,51.87c59.37,24.26,119.35,36.44,179.43,36.44M1469.25,2607.67h3.94c60.07,0,120.05,12.18,179.43,36.44l126.95,51.87c59.37,24.26,119.36,36.44,179.43,36.44M979.5,2482.93h3.94c60.07,0,120.06,12.18,179.43,36.44l126.95,51.87c59.37,24.26,119.36,36.44,179.43,36.44M489.75,2358.19h3.94c60.07,0,120.05,12.18,179.43,36.44l126.95,51.87c59.37,24.26,119.35,36.44,179.43,36.44M0,2233.45h3.94c60.07,0,120.05,12.18,179.43,36.44l126.96,51.87c59.37,24.26,119.35,36.44,179.43,36.44M1469.25,2562.31h3.94c60.07,0,120.05,12.18,179.43,36.44l126.95,51.87c59.37,24.26,119.36,36.44,179.43,36.44M979.5,2437.57h3.94c60.07,0,120.06,12.18,179.43,36.44l126.95,51.87c59.37,24.26,119.36,36.44,179.43,36.44M489.75,2312.83h3.94c60.07,0,120.05,12.18,179.43,36.44l126.95,51.87c59.37,24.26,119.35,36.44,179.43,36.44M0,2188.09h3.94c60.07,0,120.05,12.18,179.43,36.44l126.96,51.87c59.37,24.26,119.35,36.44,179.43,36.44M1469.25,2516.95h3.94c60.07,0,120.05,12.18,179.43,36.44l126.95,51.87c59.37,24.26,119.36,36.44,179.43,36.44M979.5,2392.21h3.94c60.07,0,120.06,12.18,179.43,36.44l126.95,51.87c59.37,24.26,119.36,36.44,179.43,36.44M489.75,2267.47h3.94c60.07,0,120.05,12.18,179.43,36.44l126.95,51.87c59.37,24.26,119.35,36.44,179.43,36.44M0,2142.73h3.94c60.07,0,120.05,12.18,179.43,36.44l126.96,51.87c59.37,24.26,119.35,36.44,179.43,36.44M1469.25,2471.59h3.94c60.07,0,120.05,12.18,179.43,36.44l126.95,51.87c59.37,24.26,119.36,36.44,179.43,36.44M979.5,2346.85h3.94c60.07,0,120.06,12.18,179.43,36.44l126.95,51.87c59.37,24.26,119.36,36.44,179.43,36.44M489.75,2222.11h3.94c60.07,0,120.05,12.18,179.43,36.44l126.95,51.87c59.37,24.26,119.35,36.44,179.43,36.44M0,2097.37h3.94c60.07,0,120.05,12.18,179.43,36.44l126.96,51.87c59.37,24.26,119.35,36.44,179.43,36.44M1469.25,2426.23h3.94c60.07,0,120.05,12.18,179.43,36.44l126.95,51.87c59.37,24.26,119.36,36.44,179.43,36.44M979.5,2301.49h3.94c60.07,0,120.06,12.18,179.43,36.44l126.95,51.87c59.37,24.26,119.36,36.44,179.43,36.44M489.75,2176.75h3.94c60.07,0,120.05,12.18,179.43,36.44l126.95,51.87c59.37,24.26,119.35,36.44,179.43,36.44M0,2052.01h3.94c60.07,0,120.05,12.18,179.43,36.44l126.96,51.87c59.37,24.26,119.35,36.44,179.43,36.44M1469.25,2380.87h3.94c60.07,0,120.05,12.18,179.43,36.44l126.95,51.87c59.37,24.26,119.36,36.44,179.43,36.44M979.5,2256.13h3.94c60.07,0,120.06,12.18,179.43,36.44l126.95,51.87c59.37,24.26,119.36,36.44,179.43,36.44M489.75,2131.39h3.94c60.07,0,120.05,12.18,179.43,36.44l126.95,51.87c59.37,24.26,119.35,36.44,179.43,36.44M0,2006.65h3.94c60.07,0,120.05,12.18,179.43,36.44l126.96,51.87c59.37,24.26,119.35,36.44,179.43,36.44M1469.25,2335.51h3.94c60.07,0,120.05,12.18,179.43,36.44l126.95,51.87c59.37,24.26,119.36,36.44,179.43,36.44M979.5,2210.77h3.94c60.07,0,120.06,12.18,179.43,36.44l126.95,51.87c59.37,24.26,119.36,36.44,179.43,36.44M489.75,2086.03h3.94c60.07,0,120.05,12.18,179.43,36.44l126.95,51.87c59.37,24.26,119.35,36.44,179.43,36.44M0,1961.29h3.94c60.07,0,120.05,12.18,179.43,36.44l126.96,51.87c59.37,24.26,119.35,36.44,179.43,36.44M1469.25,2290.15h3.94c60.07,0,120.05,12.18,179.43,36.44l126.95,51.87c59.37,24.26,119.36,36.44,179.43,36.44M979.5,2165.41h3.94c60.07,0,120.06,12.18,179.43,36.44l126.95,51.87c59.37,24.26,119.36,36.44,179.43,36.44M489.75,2040.67h3.94c60.07,0,120.05,12.18,179.43,36.44l126.95,51.87c59.37,24.26,119.35,36.44,179.43,36.44M0,1915.93h3.94c60.07,0,120.05,12.18,179.43,36.44l126.96,51.87c59.37,24.26,119.35,36.44,179.43,36.44M1469.25,2244.79h3.94c60.07,0,120.05,12.18,179.43,36.44l126.95,51.87c59.37,24.26,119.36,36.44,179.43,36.44M979.5,2120.05h3.94c60.07,0,120.06,12.18,179.43,36.44l126.95,51.87c59.37,24.26,119.36,36.44,179.43,36.44M489.75,1995.31h3.94c60.07,0,120.05,12.18,179.43,36.44l126.95,51.87c59.37,24.26,119.35,36.44,179.43,36.44M0,1870.57h3.94c60.07,0,120.05,12.18,179.43,36.44l126.96,51.87c59.37,24.26,119.35,36.44,179.43,36.44M1469.25,2199.43h3.94c60.07,0,120.05,12.18,179.43,36.44l126.95,51.87c59.37,24.26,119.36,36.44,179.43,36.44M979.5,2074.69h3.94c60.07,0,120.06,12.18,179.43,36.44l126.95,51.87c59.37,24.26,119.36,36.44,179.43,36.44M489.75,1949.95h3.94c60.07,0,120.05,12.18,179.43,36.44l126.95,51.87c59.37,24.26,119.35,36.44,179.43,36.44M0,1825.21h3.94c60.07,0,120.05,12.18,179.43,36.44l126.96,51.87c59.37,24.26,119.35,36.44,179.43,36.44M1469.25,2154.07h3.94c60.07,0,120.05,12.18,179.43,36.44l126.95,51.87c59.37,24.26,119.36,36.44,179.43,36.44M979.5,2029.33h3.94c60.07,0,120.06,12.18,179.43,36.44l126.95,51.87c59.37,24.26,119.36,36.44,179.43,36.44M489.75,1904.59h3.94c60.07,0,120.05,12.18,179.43,36.44l126.95,51.87c59.37,24.26,119.35,36.44,179.43,36.44M0,1779.85h3.94c60.07,0,120.05,12.18,179.43,36.44l126.96,51.87c59.37,24.26,119.35,36.44,179.43,36.44M1469.25,2108.71h3.94c60.07,0,120.05,12.18,179.43,36.44l126.95,51.87c59.37,24.26,119.36,36.44,179.43,36.44M979.5,1983.97h3.94c60.07,0,120.06,12.18,179.43,36.44l126.95,51.87c59.37,24.26,119.36,36.44,179.43,36.44M489.75,1859.23h3.94c60.07,0,120.05,12.18,179.43,36.44l126.95,51.87c59.37,24.26,119.35,36.44,179.43,36.44M0,1734.49h3.94c60.07,0,120.05,12.18,179.43,36.44l126.96,51.87c59.37,24.26,119.35,36.44,179.43,36.44M1469.25,2063.35h3.94c60.07,0,120.05,12.18,179.43,36.44l126.95,51.87c59.37,24.26,119.36,36.44,179.43,36.44M979.5,1938.61h3.94c60.07,0,120.06,12.18,179.43,36.44l126.95,51.87c59.37,24.26,119.36,36.44,179.43,36.44M489.75,1813.87h3.94c60.07,0,120.05,12.18,179.43,36.44l126.95,51.87c59.37,24.26,119.35,36.44,179.43,36.44M0,1689.13h3.94c60.07,0,120.05,12.18,179.43,36.44l126.96,51.87c59.37,24.26,119.35,36.44,179.43,36.44M1469.25,2017.99h3.94c60.07,0,120.05,12.18,179.43,36.44l126.95,51.87c59.37,24.26,119.36,36.44,179.43,36.44M979.5,1893.25h3.94c60.07,0,120.06,12.18,179.43,36.44l126.95,51.87c59.37,24.26,119.36,36.44,179.43,36.44M489.75,1768.51h3.94c60.07,0,120.05,12.18,179.43,36.44l126.95,51.87c59.37,24.26,119.35,36.44,179.43,36.44M0,1643.77h3.94c60.07,0,120.05,12.18,179.43,36.44l126.96,51.87c59.37,24.26,119.35,36.44,179.43,36.44M1469.25,1972.63h3.94c60.07,0,120.05,12.18,179.43,36.44l126.95,51.87c59.37,24.26,119.36,36.44,179.43,36.44M979.5,1847.89h3.94c60.07,0,120.06,12.18,179.43,36.44l126.95,51.87c59.37,24.26,119.36,36.44,179.43,36.44M489.75,1723.15h3.94c60.07,0,120.05,12.18,179.43,36.44l126.95,51.87c59.37,24.26,119.35,36.44,179.43,36.44M0,1598.41h3.94c60.07,0,120.05,12.18,179.43,36.44l126.96,51.87c59.37,24.26,119.35,36.44,179.43,36.44M1469.25,1927.27h3.94c60.07,0,120.05,12.18,179.43,36.44l126.95,51.87c59.37,24.26,119.36,36.44,179.43,36.44M979.5,1802.53h3.94c60.07,0,120.06,12.18,179.43,36.44l126.95,51.87c59.37,24.26,119.36,36.44,179.43,36.44M489.75,1677.79h3.94c60.07,0,120.05,12.18,179.43,36.44l126.95,51.87c59.37,24.26,119.35,36.44,179.43,36.44M1469.25,1881.91h3.94c60.07,0,120.05,12.18,179.43,36.44l126.95,51.87c59.37,24.26,119.36,36.44,179.43,36.44M979.5,1757.17h3.94c60.07,0,120.06,12.18,179.43,36.44l126.95,51.87c59.37,24.26,119.36,36.44,179.43,36.44M489.75,1632.43h3.94c60.07,0,120.05,12.18,179.43,36.44l126.95,51.87c59.37,24.26,119.35,36.44,179.43,36.44M1469.25,1836.55h3.94c60.07,0,120.05,12.18,179.43,36.44l126.95,51.87c59.37,24.26,119.36,36.44,179.43,36.44M979.5,1711.81h3.94c60.07,0,120.06,12.18,179.43,36.44l126.95,51.87c59.37,24.26,119.36,36.44,179.43,36.44M489.75,1587.07h3.94c60.07,0,120.05,12.18,179.43,36.44l126.95,51.87c59.37,24.26,119.35,36.44,179.43,36.44M1469.25,1791.19h3.94c60.07,0,120.05,12.18,179.43,36.44l126.95,51.87c59.37,24.26,119.36,36.44,179.43,36.44M979.5,1666.45h3.94c60.07,0,120.06,12.18,179.43,36.44l126.95,51.87c59.37,24.26,119.36,36.44,179.43,36.44M1469.25,1745.83h3.94c60.07,0,120.05,12.18,179.43,36.44l126.95,51.87c59.37,24.26,119.36,36.44,179.43,36.44M979.5,1621.09h3.94c60.07,0,120.06,12.18,179.43,36.44l126.95,51.87c59.37,24.26,119.36,36.44,179.43,36.44M1469.25,1700.47h3.94c60.07,0,120.05,12.18,179.43,36.44l126.95,51.87c59.37,24.26,119.36,36.44,179.43,36.44M979.5,1575.73h3.94c60.07,0,120.06,12.18,179.43,36.44l126.95,51.87c59.37,24.26,119.36,36.44,179.43,36.44M1469.25,1655.11h3.94c60.07,0,120.05,12.18,179.43,36.44l126.95,51.87c59.37,24.26,119.36,36.44,179.43,36.44M1469.25,1609.75h3.94c60.07,0,120.05,12.18,179.43,36.44l126.95,51.87c59.37,24.26,119.36,36.44,179.43,36.44M1469.25,1564.39h3.94c60.07,0,120.05,12.18,179.43,36.44l126.95,51.87c59.37,24.26,119.36,36.44,179.43,36.44"/>
</svg>