<?xml version="1.0" encoding="UTF-8"?>
<svg id="Layer_1" xmlns="http://www.w3.org/2000/svg" version="1.1" xmlns:xlink="http://www.w3.org/1999/xlink" viewBox="0 0 1959.07 362.89">
  <!-- Generator: Adobe Illustrator 29.5.1, SVG Export Plug-In . SVG Version: 2.1.0 Build 141)  -->
  <defs>
    <clipPath id="clippath">
      <rect x=".07" width="1959.07" height="362.89" style="fill: none;"/>
    </clipPath>
  </defs>
  <g style="clip-path: url(#clippath);">
    <path d="M.07,816.49h3.94c60.07,0,120.05,12.18,179.43,36.44l126.96,51.87c59.37,24.26,119.35,36.44,179.43,36.44M.07,771.12h3.94c60.07,0,120.05,12.18,179.43,36.44l126.96,51.87c59.37,24.26,119.35,36.44,179.43,36.44M.07,725.76h3.94c60.07,0,120.05,12.18,179.43,36.44l126.96,51.87c59.37,24.26,119.35,36.44,179.43,36.44M489.82,805.14h3.94c60.07,0,120.05,12.18,179.43,36.44l126.95,51.87c59.37,24.26,119.35,36.44,179.43,36.44M.07,680.4h3.94c60.07,0,120.05,12.18,179.43,36.44l126.96,51.87c59.37,24.26,119.35,36.44,179.43,36.44M489.82,759.78h3.94c60.07,0,120.05,12.18,179.43,36.44l126.95,51.87c59.37,24.26,119.35,36.44,179.43,36.44M.07,635.04h3.94c60.07,0,120.05,12.18,179.43,36.44l126.96,51.87c59.37,24.26,119.35,36.44,179.43,36.44M489.82,714.42h3.94c60.07,0,120.05,12.18,179.43,36.44l126.95,51.87c59.37,24.26,119.35,36.44,179.43,36.44M.07,589.68h3.94c60.07,0,120.05,12.18,179.43,36.44l126.96,51.87c59.37,24.26,119.35,36.44,179.43,36.44M979.57,793.8h3.94c60.07,0,120.06,12.18,179.43,36.44l126.95,51.87c59.37,24.26,119.36,36.44,179.43,36.44M489.82,669.06h3.94c60.07,0,120.05,12.18,179.43,36.44l126.95,51.87c59.37,24.26,119.35,36.44,179.43,36.44M.07,544.32h3.94c60.07,0,120.05,12.18,179.43,36.44l126.96,51.87c59.37,24.26,119.35,36.44,179.43,36.44M979.57,748.44h3.94c60.07,0,120.06,12.18,179.43,36.44l126.95,51.87c59.37,24.26,119.36,36.44,179.43,36.44M489.82,623.7h3.94c60.07,0,120.05,12.18,179.43,36.44l126.95,51.87c59.37,24.26,119.35,36.44,179.43,36.44M.07,498.96h3.94c60.07,0,120.05,12.18,179.43,36.44l126.96,51.87c59.37,24.26,119.35,36.44,179.43,36.44M979.57,703.08h3.94c60.07,0,120.06,12.18,179.43,36.44l126.95,51.87c59.37,24.26,119.36,36.44,179.43,36.44M489.82,578.35h3.94c60.07,0,120.05,12.18,179.43,36.44l126.95,51.87c59.37,24.26,119.35,36.44,179.43,36.44M.07,453.61h3.94c60.07,0,120.05,12.18,179.43,36.44l126.96,51.87c59.37,24.26,119.35,36.44,179.43,36.44M1469.32,782.46h3.94c60.07,0,120.05,12.18,179.43,36.44l126.95,51.87c59.37,24.26,119.36,36.44,179.43,36.44M979.57,657.73h3.94c60.07,0,120.06,12.18,179.43,36.44l126.95,51.87c59.37,24.26,119.36,36.44,179.43,36.44M489.82,532.99h3.94c60.07,0,120.05,12.18,179.43,36.44l126.95,51.87c59.37,24.26,119.35,36.44,179.43,36.44M.07,408.25h3.94c60.07,0,120.05,12.18,179.43,36.44l126.96,51.87c59.37,24.26,119.35,36.44,179.43,36.44M1469.32,737.11h3.94c60.07,0,120.05,12.18,179.43,36.44l126.95,51.87c59.37,24.26,119.36,36.44,179.43,36.44M979.57,612.37h3.94c60.07,0,120.06,12.18,179.43,36.44l126.95,51.87c59.37,24.26,119.36,36.44,179.43,36.44M489.82,487.62h3.94c60.07,0,120.05,12.18,179.43,36.44l126.95,51.87c59.37,24.26,119.35,36.44,179.43,36.44M.07,362.88h3.94c60.07,0,120.05,12.18,179.43,36.44l126.96,51.87c59.37,24.26,119.35,36.44,179.43,36.44M1469.32,691.75h3.94c60.07,0,120.05,12.18,179.43,36.44l126.95,51.87c59.37,24.26,119.36,36.44,179.43,36.44M979.57,567h3.94c60.07,0,120.06,12.18,179.43,36.44l126.95,51.87c59.37,24.26,119.36,36.44,179.43,36.44M489.82,442.26h3.94c60.07,0,120.05,12.18,179.43,36.44l126.95,51.87c59.37,24.26,119.35,36.44,179.43,36.44M.07,317.52h3.94c60.07,0,120.05,12.18,179.43,36.44l126.96,51.87c59.37,24.26,119.35,36.44,179.43,36.44M1469.32,646.38h3.94c60.07,0,120.05,12.18,179.43,36.44l126.95,51.87c59.37,24.26,119.36,36.44,179.43,36.44M979.57,521.64h3.94c60.07,0,120.06,12.18,179.43,36.44l126.95,51.87c59.37,24.26,119.36,36.44,179.43,36.44M489.82,396.9h3.94c60.07,0,120.05,12.18,179.43,36.44l126.95,51.87c59.37,24.26,119.35,36.44,179.43,36.44M.07,272.16h3.94c60.07,0,120.05,12.18,179.43,36.44l126.96,51.87c59.37,24.26,119.35,36.44,179.43,36.44M1469.32,601.02h3.94c60.07,0,120.05,12.18,179.43,36.44l126.95,51.87c59.37,24.26,119.36,36.44,179.43,36.44M979.57,476.28h3.94c60.07,0,120.06,12.18,179.43,36.44l126.95,51.87c59.37,24.26,119.36,36.44,179.43,36.44M489.82,351.54h3.94c60.07,0,120.05,12.18,179.43,36.44l126.95,51.87c59.37,24.26,119.35,36.44,179.43,36.44M.07,226.8h3.94c60.07,0,120.05,12.18,179.43,36.44l126.96,51.87c59.37,24.26,119.35,36.44,179.43,36.44M1469.32,555.66h3.94c60.07,0,120.05,12.18,179.43,36.44l126.95,51.87c59.37,24.26,119.36,36.44,179.43,36.44M979.57,430.92h3.94c60.07,0,120.06,12.18,179.43,36.44l126.95,51.87c59.37,24.26,119.36,36.44,179.43,36.44M489.82,306.18h3.94c60.07,0,120.05,12.18,179.43,36.44l126.95,51.87c59.37,24.26,119.35,36.44,179.43,36.44M.07,181.44h3.94c60.07,0,120.05,12.18,179.43,36.44l126.96,51.87c59.37,24.26,119.35,36.44,179.43,36.44M1469.32,510.3h3.94c60.07,0,120.05,12.18,179.43,36.44l126.95,51.87c59.37,24.26,119.36,36.44,179.43,36.44M979.57,385.56h3.94c60.07,0,120.06,12.18,179.43,36.44l126.95,51.87c59.37,24.26,119.36,36.44,179.43,36.44M489.82,260.82h3.94c60.07,0,120.05,12.18,179.43,36.44l126.95,51.87c59.37,24.26,119.35,36.44,179.43,36.44M.07,136.08h3.94c60.07,0,120.05,12.18,179.43,36.44l126.96,51.87c59.37,24.26,119.35,36.44,179.43,36.44M1469.32,464.94h3.94c60.07,0,120.05,12.18,179.43,36.44l126.95,51.87c59.37,24.26,119.36,36.44,179.43,36.44M979.57,340.2h3.94c60.07,0,120.06,12.18,179.43,36.44l126.95,51.87c59.37,24.26,119.36,36.44,179.43,36.44M489.82,215.46h3.94c60.07,0,120.05,12.18,179.43,36.44l126.95,51.87c59.37,24.26,119.35,36.44,179.43,36.44M.07,90.72h3.94c60.07,0,120.05,12.18,179.43,36.44l126.96,51.87c59.37,24.26,119.35,36.44,179.43,36.44M1469.32,419.58h3.94c60.07,0,120.05,12.18,179.43,36.44l126.95,51.87c59.37,24.26,119.36,36.44,179.43,36.44M979.57,294.85h3.94c60.07,0,120.06,12.18,179.43,36.44l126.95,51.87c59.37,24.26,119.36,36.44,179.43,36.44M489.82,170.1h3.94c60.07,0,120.05,12.18,179.43,36.44l126.95,51.87c59.37,24.26,119.35,36.44,179.43,36.44M.07,45.36h3.94c60.07,0,120.05,12.18,179.43,36.44l126.96,51.87c59.37,24.26,119.35,36.44,179.43,36.44M1469.32,374.23h3.94c60.07,0,120.05,12.18,179.43,36.44l126.95,51.87c59.37,24.26,119.36,36.44,179.43,36.44M979.57,249.48h3.94c60.07,0,120.06,12.18,179.43,36.44l126.95,51.87c59.37,24.26,119.36,36.44,179.43,36.44M489.82,124.74h3.94c60.07,0,120.05,12.18,179.43,36.44l126.95,51.87c59.37,24.26,119.35,36.44,179.43,36.44M.07,0h3.94c60.07,0,120.05,12.18,179.43,36.44l126.96,51.87c59.37,24.26,119.35,36.44,179.43,36.44M1469.32,328.87h3.94c60.07,0,120.05,12.18,179.43,36.44l126.95,51.87c59.37,24.26,119.36,36.44,179.43,36.44M979.57,204.12h3.94c60.07,0,120.06,12.18,179.43,36.44l126.95,51.87c59.37,24.26,119.36,36.44,179.43,36.44M489.82,79.38h3.94c60.07,0,120.05,12.18,179.43,36.44l126.95,51.87c59.37,24.26,119.35,36.44,179.43,36.44M.07-45.36h3.94c60.07,0,120.05,12.18,179.43,36.44l126.96,51.87c59.37,24.26,119.35,36.44,179.43,36.44M1469.32,283.5h3.94c60.07,0,120.05,12.18,179.43,36.44l126.95,51.87c59.37,24.26,119.36,36.44,179.43,36.44M979.57,158.76h3.94c60.07,0,120.06,12.18,179.43,36.44l126.95,51.87c59.37,24.26,119.36,36.44,179.43,36.44M489.82,34.02h3.94c60.07,0,120.05,12.18,179.43,36.44l126.95,51.87c59.37,24.26,119.35,36.44,179.43,36.44M.07-90.72h3.94c60.07,0,120.05,12.18,179.43,36.44L310.4-2.41c59.37,24.26,119.35,36.44,179.43,36.44M1469.32,238.14h3.94c60.07,0,120.05,12.18,179.43,36.44l126.95,51.87c59.37,24.26,119.36,36.44,179.43,36.44M979.57,113.4h3.94c60.07,0,120.06,12.18,179.43,36.44l126.95,51.87c59.37,24.26,119.36,36.44,179.43,36.44M489.82-11.34h3.94c60.07,0,120.05,12.18,179.43,36.44l126.95,51.87c59.37,24.26,119.35,36.44,179.43,36.44M.07-136.08h3.94c60.07,0,120.05,12.18,179.43,36.44l126.96,51.87c59.37,24.26,119.35,36.44,179.43,36.44M1469.32,192.78h3.94c60.07,0,120.05,12.18,179.43,36.44l126.95,51.87c59.37,24.26,119.36,36.44,179.43,36.44M979.57,68.04h3.94c60.07,0,120.06,12.18,179.43,36.44l126.95,51.87c59.37,24.26,119.36,36.44,179.43,36.44M489.82-56.7h3.94c60.07,0,120.05,12.18,179.43,36.44l126.95,51.87c59.37,24.26,119.35,36.44,179.43,36.44M183.44-145l126.96,51.87c59.37,24.26,119.35,36.44,179.43,36.44M1469.32,147.42h3.94c60.07,0,120.05,12.18,179.43,36.44l126.95,51.87c59.37,24.26,119.36,36.44,179.43,36.44M979.57,22.68h3.94c60.07,0,120.06,12.18,179.43,36.44l126.95,51.87c59.37,24.26,119.36,36.44,179.43,36.44M489.82-102.06h3.94c60.07,0,120.05,12.18,179.43,36.44l126.95,51.87c59.37,24.26,119.35,36.44,179.43,36.44M310.4-138.49c59.37,24.26,119.35,36.44,179.43,36.44M1469.32,102.06h3.94c60.07,0,120.05,12.18,179.43,36.44l126.95,51.87c59.37,24.26,119.36,36.44,179.43,36.44M979.57-22.68h3.94c60.07,0,120.06,12.18,179.43,36.44l126.95,51.87c59.37,24.26,119.36,36.44,179.43,36.44M489.82-147.42h3.94c60.07,0,120.05,12.18,179.43,36.44l126.95,51.87c59.37,24.26,119.35,36.44,179.43,36.44M1469.32,56.71h3.94c60.07,0,120.05,12.17,179.43,36.43l126.95,51.87c59.37,24.26,119.36,36.44,179.43,36.44M489.83-147.4,979.57-68.04h3.94c60.07,0,120.06,12.18,179.43,36.44l126.95,51.87c59.37,24.26,119.36,36.44,179.43,36.44M673.19-156.34l126.95,51.87c59.37,24.26,119.35,36.44,179.43,36.44M1469.32,11.34h3.94c60.07,0,120.05,12.18,179.43,36.44l126.95,51.87c59.37,24.26,119.36,36.44,179.43,36.44M979.57-113.4h3.94c60.07,0,120.06,12.18,179.43,36.44l126.95,51.87c59.37,24.26,119.36,36.44,179.43,36.44M800.14-149.83c59.37,24.26,119.35,36.44,179.43,36.44M1469.32-34.02h3.94c60.07,0,120.05,12.18,179.43,36.44l126.95,51.87c59.37,24.26,119.36,36.44,179.43,36.44M979.57-158.76h3.94c60.07,0,120.06,12.18,179.43,36.44l126.95,51.87c59.37,24.26,119.36,36.44,179.43,36.44M979.57-158.75l489.75,79.37h3.94c60.07,0,120.05,12.18,179.43,36.44l126.95,51.87c59.37,24.26,119.36,36.44,179.43,36.44M1162.94-167.68l126.95,51.87c59.37,24.26,119.36,36.44,179.43,36.44M1469.32-124.74h3.94c60.07,0,120.05,12.18,179.43,36.44l126.95,51.87C1839.01-12.17,1899,0,1959.07,0M1289.89-161.17c59.37,24.26,119.36,36.44,179.43,36.44M1469.32-170.1h3.94c60.07,0,120.05,12.18,179.43,36.44l126.95,51.87c59.37,24.26,119.36,36.44,179.43,36.44M1469.32-170.08l310.32,42.93c59.37,24.26,119.36,36.44,179.43,36.44" style="fill: none; stroke: #d4664a; stroke-miterlimit: 10;"/>
  </g>
</svg>