<?xml version="1.0" encoding="UTF-8"?>
<svg id="Layer_1" xmlns="http://www.w3.org/2000/svg" version="1.1" viewBox="0 0 50 50">
  <!-- Generator: Adobe Illustrator 29.5.1, SVG Export Plug-In . SVG Version: 2.1.0 Build 141)  -->
  <path d="M46.49,3.51c-3.51-3.51-9.17-3.51-20.49-3.51h-2C12.69,0,7.03,0,3.51,3.51,0,7.03,0,12.69,0,24v2C0,37.31,0,42.97,3.51,46.49c3.51,3.51,9.17,3.51,20.49,3.51h2c11.31,0,16.97,0,20.49-3.51,3.51-3.51,3.51-9.17,3.51-20.49v-2c0-11.31,0-16.97-3.51-20.49ZM38.61,14.76h0s-4.53,21.24-4.53,21.24c-.34,1.5-1.23,1.87-2.5,1.17l-6.91-5.06-3.33,3.19c-.37.37-.68.67-1.39.67l.5-6.99,12.8-11.49c.56-.49-.12-.77-.86-.27l-15.82,9.9-6.81-2.12c-1.48-.46-1.51-1.47.31-2.18l26.65-10.2c1.23-.46,2.31.27,1.91,2.15Z"/>
</svg>