<?xml version="1.0" encoding="UTF-8"?>
<svg id="Layer_1" xmlns="http://www.w3.org/2000/svg" version="1.1" viewBox="0 0 50 50">
  <!-- Generator: Adobe Illustrator 29.5.1, SVG Export Plug-In . SVG Version: 2.1.0 Build 141)  -->
  <path d="M46.49,3.51c-3.51-3.51-9.17-3.51-20.49-3.51h-2C12.69,0,7.03,0,3.51,3.51,0,7.03,0,12.69,0,24v2c0,11.31,0,16.97,3.51,20.49,3.51,3.51,9.17,3.51,20.49,3.51h2c11.31,0,16.97,0,20.49-3.51,3.51-3.51,3.51-9.17,3.51-20.49v-2c0-11.31,0-16.97-3.51-20.49ZM35.87,36.02c-1.27-3.96-4.44-7.02-8.62-7.44v7.44h-.65c-11.4,0-17.9-7.81-18.17-20.81h5.71c.19,9.54,4.4,13.58,7.73,14.42v-14.42h5.38v8.23c3.29-.35,6.75-4.1,7.92-8.23h5.38c-.9,5.08-4.65,8.83-7.31,10.37,2.67,1.25,6.94,4.52,8.56,10.44h-5.92Z"/>
</svg>